<?xml version="1.0" encoding="UTF-8"?>
<svg id="Layer_1" data-name="Layer 1" xmlns="http://www.w3.org/2000/svg" viewBox="0 0 118.09 117.45">
  <defs>
    <style>
      .cls-1 {
        fill: #f4a261;
      }

      .cls-2 {
        fill: #4e7a37;
      }

      .cls-3 {
        fill: #fdfdfd;
      }
    </style>
  </defs>
  <path class="cls-2" d="M15.38,34.66c-.69-.69-.79.24-1.01.58-.68,1.05-1.72,3.32-2.23,4.54-11.03,26.26,4.25,57.21,30.62,66.38,8.77,3.05,20.05,2.63,29.22,1.86-3.11,4.96-5.28,4.72,1.34,8.08-17.57,3.5-35.01.23-49.27-10.68C.63,87.53-7.7,55.52,8.14,29.69c-2.13-.39-5.27,1.45-6.82-.65-1.13-1.53-.15-2.24,1.08-3.06s13.06-6.12,14.16-6.22c3.35-.32,2.93,2.67,3.29,5.23.61,4.43.78,9.05.96,13.52-4.2,5.28-4.96-3.37-5.43-3.85Z"/>
  <path class="cls-2" d="M25.79,15.21c-.23-.36-4.15-.48-4.98-.91-.24-.32,4.32-3.63,4.83-3.98,22.24-15.18,51.79-13.46,72.09,4.21,11.43,9.95,20.48,25.98,20.35,41.41-4.11-4.59-3.17-4.06-7.24-.27C106.02,19.06,66.82-3.17,33.93,15.88l-8.14,5.66c-.25-1.12.33-5.81,0-6.33Z"/>
  <path class="cls-1" d="M116.6,65.56c2.3,2.85-1.92,14.07-3.41,17.37-4.16,9.22-11,16.61-18.94,22.69-.66.51-3.63,2.17-3.76,2.35-.94,1.36,5.39,2.62,5.39,5.19,0,2.33-1.99,2.13-3.69,1.92-1.5-.19-14.66-3.68-15.26-4.19-.38-.32-.78-.97-.85-1.45-.31-2.07,7.04-12.58,7.87-15.48,6.34-3.26,3.89,3.31,2.69,6.76,8.38-5.6,14.97-13.36,18.99-22.63,1.7-3.93,2.62-8.06,4.3-11.98,1.23-1.93,5.3-2.22,6.66-.54Z"/>
  <path class="cls-1" d="M37.46,58.74c2.21-.18,4.23.72,5.94,1.98,3.23,2.38,12.22,12.68,7.27,16.24-3.08,2.21-9.23-1.34-13.35-1.14-3.43.17-12.45,4.5-13.32-1.6-.74-5.19,8.29-15.07,13.46-15.48Z"/>
  <path class="cls-1" d="M45.08,43.41c6.5-.4,6.81,12.15,1.08,13.66-8.1,2.14-8.35-13.22-1.08-13.66Z"/>
  <path class="cls-1" d="M30.18,43.81c9.7-2.24,8.27,16.9-.32,12.8-4.47-2.13-4.64-11.65.32-12.8Z"/>
  <path class="cls-1" d="M54.63,53.76c6.5-1.28,6.61,8.44,1.44,11.4-7.11,4.07-8.91-9.94-1.44-11.4Z"/>
  <path class="cls-1" d="M19.32,53.77c6.47-1.93,10.51,10.01,4.12,11.83-5.73,1.64-9.41-10.26-4.12-11.83Z"/>
  <g>
    <path class="cls-2" d="M64.76,48.75c2.59-1.64,7.91,6.18,9.67,7.62,7.4-7.1,20.29-7.39,28.24-1.08s6.8,12.65-1.92,17.46c-9.19,5.06-19.3,2.68-26.77-4.14-1.18,1.78-7.04,8.11-8.95,7.62-2.29-.58.16-6.51.46-8.44.26-1.67.62-4.13.61-5.76-.01-2.14-2.35-12.64-1.33-13.28ZM99.47,60.89c0-1.59-1.29-2.88-2.88-2.88s-2.88,1.29-2.88,2.88,1.29,2.88,2.88,2.88,2.88-1.29,2.88-2.88Z"/>
    <circle class="cls-3" cx="96.59" cy="60.89" r="2.88"/>
  </g>
</svg>